<svg xmlns="http://www.w3.org/2000/svg" xmlns:svg="http://www.w3.org/2000/svg" viewBox="12.25 19.33 475.52 461.32" fill="#ffff">
 <g class="layer">
  <title>Layer 1</title>
  <path d="m355.74,268.79c-37.52,18.01 -79.37,-20.58 -63.23,-59.76a46.76,46.76 0 0 1 40.04,-29.25a2.43,2.43 0 0 0 0.74,-4.7c-68.94,-30.01 -128.03,76.69 -45.25,115.79a62.34,62.34 0 0 0 70.62,-18.32a2.44,2.44 0 0 0 -2.92,-3.76z" id="svg_1" />
  <path d="m374.96,216.51c-5.52,-2.24 -11.9,-6.66 -9.38,-16.16c1.48,-5.43 4.81,-15.72 4.85,-15.83a2.42,2.42 0 0 0 -4.49,-1.79c-0.05,0.1 -4.7,9.87 -7.35,14.84c-4.61,8.62 -12.53,7.45 -17.92,5.3a2.42,2.42 0 0 0 -1.97,4.42a48.45,48.45 0 0 1 4.85,2.57c3.85,2.36 5.32,8.48 3.66,15.22c-1.2,4.85 -4.1,15.05 -4.14,15.15a2.43,2.43 0 0 0 4.48,1.78c0.05,-0.09 4.95,-9.5 7.41,-13.85c3.42,-6.04 8.68,-9.48 13.1,-8.55c4.07,0.6 6.86,3.22 8.37,-0.02a2.43,2.43 0 0 0 -1.47,-3.08z" id="svg_2"/>
  <path d="m250.15,313.22c-5.51,-2.24 -11.9,-6.67 -9.37,-16.16c1.47,-5.44 4.81,-15.73 4.84,-15.83a2.42,2.42 0 0 0 -4.49,-1.79c-0.05,0.1 -4.7,9.87 -7.35,14.83c-4.61,8.63 -12.53,7.45 -17.92,5.3a2.42,2.42 0 0 0 -1.97,4.43a48.54,48.54 0 0 1 4.85,2.57c3.86,2.36 5.32,8.47 3.66,15.21c-1.2,4.85 -4.1,15.06 -4.13,15.16a2.43,2.43 0 0 0 4.47,1.78c0.05,-0.1 4.95,-9.5 7.41,-13.85c3.42,-6.05 8.69,-9.48 13.11,-8.55c4.07,0.61 6.86,3.22 8.36,-0.02a2.43,2.43 0 0 0 -1.47,-3.08z" id="svg_3"/>
  <path d="m176.04,169.12c1.12,-8.47 -2.01,-38.8 -3.29,-47.13c-0.47,-3.09 -4.74,-2.19 -5.1,0.5c-1.18,8.64 0.41,39.35 2.85,47.17a2.82,2.82 0 0 0 5.54,-0.54z" id="svg_4"/>
  <path d="m106.69,244.69c-5.83,0.93 -9.08,1.94 -14.86,3.13c-4.6,0.95 -10.9,1.12 -14.26,4.62a2.4,2.4 0 0 0 0.9,4c4.53,1.63 10.36,-0.89 14.97,-1.8c5.8,-1.13 9.04,-2.16 14.87,-3.09c4.47,-0.71 2.85,-7.56 -1.62,-6.86z" id="svg_5"/>
  <path d="m121.77,188.91c-11.6,-11.02 -16.95,-17.53 -27.87,-29.18c-1.9,-2.03 -5.83,0.5 -4.12,2.94c9.14,13.04 15.97,19.5 27.7,30.23c2.75,2.51 7.05,-1.37 4.29,-3.99z" id="svg_6"/>
  <path d="m142.67,175.52c1.56,1.46 5.08,0.84 4.86,-1.8c-0.25,-3.08 -1.93,-5.66 -3.28,-8.41q-2.18,-4.42 -4.42,-8.82c-1.8,-3.52 -7,-0.67 -5.38,2.88q1.94,4.23 3.93,8.43c1.22,2.57 2.18,5.76 4.29,7.72z" id="svg_7"/>
  <path d="m109.79,222.03a2.77,2.77 0 0 0 1.68,-5.29a201.33,201.33 0 0 1 -18.7,-7.64c-3.12,-1.55 -6.1,2.99 -2.95,4.64a97.83,97.83 0 0 0 19.97,8.29z" id="svg_8"/>
  <path d="m109.67,291.11c3.7,-3.78 7.46,-7.53 11.03,-11.43c2.31,-2.53 -1.17,-6.44 -3.67,-3.96c-3.76,3.73 -7.34,7.65 -10.97,11.5c-2.32,2.47 1.21,6.34 3.61,3.89z" id="svg_9"/>
  <path d="m130.43,146.07c5.6,-1 4.26,-9.37 -1.38,-8.56c-5.61,1 -4.26,9.36 1.38,8.56z" id="svg_10"/>
  <path d="m74.96,199.34c-5.61,1 -4.26,9.36 1.37,8.55c5.61,-0.99 4.27,-9.36 -1.37,-8.55z" id="svg_11"/>
  <path d="m97.03,297.86c-5.61,1 -4.26,9.36 1.38,8.55c5.61,-0.99 4.26,-9.36 -1.38,-8.55z" id="svg_12"/>
  <path d="m71.37,460.38c39.97,-6.8 87.56,-15.97 127.78,-21.4a3.71,3.71 0 0 0 0.95,-7.1l-30.87,-13.12a19.1,19.1 0 0 0 -10.74,-1.24c-11.22,1.95 -29.94,6.66 -41.15,8.6c-3.4,-16.49 -17.1,-27.48 -34,-24.8c-16.04,-88.6 -28.53,-177.83 -38.24,-267.34c16.67,-4.2 25.91,-17.94 23.91,-34.88q65.85,-11.18 132.35,-17.7a24.57,24.57 0 0 0 3.22,11.57a3.7,3.7 0 0 0 6.6,-0.26l16.16,-35.63a3.37,3.37 0 0 0 -3.37,-4.74q-75.48,6.9 -150.4,18.82c-19.54,3.13 -39.28,6.05 -58.61,10.34a3.16,3.16 0 0 0 -2.71,3.24c11.96,125.19 30.96,249.91 55.62,373.25a2.9,2.9 0 0 0 3.5,2.39z" id="svg_13"/>
  <path d="m133.66,265.08a4.34,4.34 0 0 0 7.7,-0.75l28.15,-72.36a4.34,4.34 0 0 0 -5.21,-5.74c-33.38,8.3 -49.93,49.7 -30.64,78.85z" id="svg_14"/>
  <path d="m260.07,19.57a3.26,3.26 0 0 0 -4.09,1.47q-6.84,14.8 -13.52,29.66c-32.13,70.48 -66.82,156.88 -94.37,229.7q-18.93,50.7 -36.52,101.85a2.99,2.99 0 0 0 1.88,3.95c38.87,14.62 87.03,33.44 125.76,49.6c33.07,13.9 65.82,28.56 98.04,44.35c2.2,0.89 4.95,0.77 6,-1.89q64.37,-182.97 144.2,-360.02a3.36,3.36 0 0 0 -1.76,-4.53c-73.55,-35.07 -148.63,-67.37 -225.62,-94.14zm182.72,135.8c-29.48,66.07 -96.58,236.03 -103.09,253.88c-16.57,-6.64 -36.3,2.67 -43.67,18.86c-40.48,-18.14 -82.31,-33.04 -123.85,-48.54c5.54,-16.45 -0.94,-33.35 -17.39,-39.74c31.76,-87.21 66.99,-173.15 104.86,-257.88c17.02,4.92 32.39,-2.5 39.41,-18.63q64.43,24.26 127.03,53.01c-8.53,15.7 1.23,33.36 16.7,39.04z" id="svg_15"/>
 </g>
</svg>