<?xml version="1.0" encoding="UTF-8" standalone="no" ?>
<!DOCTYPE svg PUBLIC "-//W3C//DTD SVG 1.1//EN" "http://www.w3.org/Graphics/SVG/1.1/DTD/svg11.dtd">
<svg xmlns="http://www.w3.org/2000/svg" xmlns:xlink="http://www.w3.org/1999/xlink" version="1.1" width="1080" height="1080" viewBox="-2.11 -2.63 1080 1080" xml:space="preserve">
<desc>Created with Fabric.js 5.2.4</desc>
<defs>
</defs>
<g transform="matrix(1 0 0 1 540 540)" id="d0109e0c-67d3-4bb4-b8d3-edd9d3de83cd"  >
<rect style="stroke: none; stroke-width: 1; stroke-dasharray: none; stroke-linecap: butt; stroke-dashoffset: 0; stroke-linejoin: miter; stroke-miterlimit: 4; fill: rgb(255,255,255); fill-rule: nonzero; opacity: 1; visibility: hidden;" vector-effect="non-scaling-stroke"  x="-540" y="-540" rx="0" ry="0" width="1080" height="1080" />
</g>
<g transform="matrix(1 0 0 1 540 540)" id="688b3b35-2721-4fb1-b765-9985ee295b4d"  >
</g>
<g transform="matrix(1.05 0 0 1.05 602.56 465.85)"  >
<path style="stroke: none; stroke-width: 1; stroke-dasharray: none; stroke-linecap: butt; stroke-dashoffset: 0; stroke-linejoin: miter; stroke-miterlimit: 4; fill: rgb(255,255,255); fill-rule: nonzero; opacity: 1;" vector-effect="non-scaling-stroke"  transform=" translate(-303.41, -232.48)" d="M 355.74 268.788 C 318.219 286.8 276.365 248.209 292.507 209.03400000000002 C 299.1597030200651 192.4246895081851 314.70715674127615 181.0678969133475 332.553 179.782 C 333.69720815107917 179.71721011290333 334.6412194213134 178.86301181574493 334.8196991817383 177.7309539560996 C 334.99817894216324 176.5988960964543 334.3627716352953 175.49568733852297 333.294 175.08200000000002 C 264.347 145.074 205.26 251.77100000000002 288.041 290.87300000000005 C 313.06833978904876 300.6154558424834 341.52204268493097 293.2331675077747 358.656 272.552 C 359.39545128522286 271.6742172327752 359.42155507972177 270.39925274370376 358.718652100219 269.4919390211906 C 358.01574912071624 268.58462529867745 356.77470337706086 268.2913313869859 355.74 268.788 Z" stroke-linecap="round" />
</g>
<g transform="matrix(1.05 0 0 1.05 658.82 444.66)"  >
<path style="stroke: none; stroke-width: 1; stroke-dasharray: none; stroke-linecap: butt; stroke-dashoffset: 0; stroke-linejoin: miter; stroke-miterlimit: 4; fill: rgb(255,255,255); fill-rule: nonzero; opacity: 1;" vector-effect="non-scaling-stroke"  transform=" translate(-356.93, -212.32)" d="M 374.961 216.511 C 369.445 214.268 363.06100000000004 209.847 365.584 200.35 C 367.062 194.917 370.394 184.625 370.428 184.522 C 370.82050582550045 183.30820585766875 370.2042325031764 181.99803447001673 369.0189406851241 181.52639864751407 C 367.8336488670718 181.0547628250114 366.485715671375 181.58336283708928 365.937 182.73499999999999 C 365.891 182.83499999999998 361.242 192.60299999999998 358.58500000000004 197.56599999999997 C 353.975 206.19299999999998 346.06300000000005 205.01599999999996 340.67 202.87099999999998 C 339.45486190485826 202.3567397432347 338.05166221347866 202.90976903810173 337.5141285356827 204.11479258442276 C 336.97659485788677 205.3198161307438 337.50253670705234 206.73339171986711 338.697 207.29399999999998 C 340.3622978547425 208.05818634273407 341.98290156172897 208.91623156872402 343.551 209.86399999999998 C 347.40299999999996 212.22199999999998 348.872 218.33599999999998 347.20599999999996 225.07699999999997 C 346.006 229.92599999999996 343.10599999999994 240.12899999999996 343.07499999999993 240.23099999999997 C 342.75825484470664 241.41883738220923 343.3800763151952 242.6558400345011 344.52235315966385 243.11025036731297 C 345.66463000413256 243.56466070012485 346.96624698734087 243.09282308826948 347.5519999999999 242.01199999999997 C 347.6009999999999 241.91699999999997 352.4989999999999 232.51199999999997 354.9579999999999 228.16099999999997 C 358.37799999999993 222.11699999999996 363.6449999999999 218.68299999999996 368.0639999999999 219.61499999999998 C 372.13499999999993 220.21499999999997 374.9239999999999 222.82899999999998 376.4309999999999 219.593 C 376.86641275269716 218.33652615968256 376.2114684655072 216.96337085824072 374.961 216.511 Z" stroke-linecap="round" />
</g>
<g transform="matrix(1.05 0 0 1.05 527.62 546.3)"  >
<path style="stroke: none; stroke-width: 1; stroke-dasharray: none; stroke-linecap: butt; stroke-dashoffset: 0; stroke-linejoin: miter; stroke-miterlimit: 4; fill: rgb(255,255,255); fill-rule: nonzero; opacity: 1;" vector-effect="non-scaling-stroke"  transform=" translate(-232.1, -309.02)" d="M 250.153 313.218 C 244.637 310.975 238.253 306.55400000000003 240.77599999999998 297.057 C 242.254 291.624 245.58599999999998 281.331 245.61999999999998 281.228 C 246.0155394729902 280.0135649027485 245.3996185973825 278.70075329705236 244.21283556932892 278.22868325515844 C 243.02605254127536 277.75661321326453 241.67668444908287 278.2876862674036 241.12999999999997 279.442 C 241.08299999999997 279.54200000000003 236.43499999999997 289.309 233.77699999999996 294.273 C 229.16699999999994 302.899 221.25499999999997 301.723 215.86199999999997 299.57300000000004 C 214.6395177062495 299.02817109429196 213.20682890570808 299.5775177062496 212.662 300.80000000000007 C 212.11717109429193 302.0224822937505 212.66651770624955 303.4551710942919 213.889 304 C 215.55422953140678 304.76469602515004 217.17482337621567 305.6230698972151 218.743 306.571 C 222.59500000000003 308.92900000000003 224.06400000000002 315.04200000000003 222.39800000000002 321.78400000000005 C 221.19800000000004 326.63300000000004 218.29800000000003 336.83500000000004 218.26700000000002 336.93800000000005 C 217.95025484470665 338.12583738220934 218.5720763151952 339.36284003450123 219.71435315966394 339.81725036731314 C 220.85663000413268 340.27166070012504 222.15824698734102 339.7998230882696 222.74400000000003 338.71900000000005 C 222.79300000000003 338.624 227.69100000000003 329.21900000000005 230.15000000000003 324.86800000000005 C 233.57000000000002 318.82400000000007 238.83700000000005 315.38900000000007 243.25600000000003 316.321 C 247.32700000000003 316.927 250.11600000000004 319.535 251.62300000000002 316.3 C 252.05899558748743 315.0434937029015 251.40386048780582 313.6699383442494 250.153 313.218 Z" stroke-linecap="round" />
</g>
<g transform="matrix(1.05 0 0 1.05 464.2 374.85)"  >
<path style="stroke: none; stroke-width: 1; stroke-dasharray: none; stroke-linecap: butt; stroke-dashoffset: 0; stroke-linejoin: miter; stroke-miterlimit: 4; fill: rgb(255,255,255); fill-rule: nonzero; opacity: 1;" vector-effect="non-scaling-stroke"  transform=" translate(-171.76, -145.89)" d="M 176.037 169.119 C 177.161 160.652 174.025 130.31900000000002 172.75400000000002 121.99199999999999 C 172.282 118.898 168.01200000000003 119.80499999999999 167.64600000000002 122.49199999999999 C 166.465 131.13299999999998 168.062 161.839 170.49800000000002 169.661 C 170.85820583551364 170.99057062248352 172.12568236148266 171.8658042296238 173.49663462059104 171.73165436061555 C 174.8675868796994 171.59750449160728 175.94136007756592 170.4931758582314 176.037 169.119 Z" stroke-linecap="round" />
</g>
<g transform="matrix(1.05 0 0 1.05 382.36 485.11)"  >
<path style="stroke: none; stroke-width: 1; stroke-dasharray: none; stroke-linecap: butt; stroke-dashoffset: 0; stroke-linejoin: miter; stroke-miterlimit: 4; fill: rgb(255,255,255); fill-rule: nonzero; opacity: 1;" vector-effect="non-scaling-stroke"  transform=" translate(-93.9, -250.81)" d="M 106.692 244.693 C 100.862 245.61700000000002 97.613 246.63000000000002 91.832 247.822 C 87.232 248.77100000000002 80.93199999999999 248.937 77.56899999999999 252.437 C 76.96665805873202 253.01893069635383 76.71124760161614 253.8727744188685 76.89509599749742 254.6898784005631 C 77.0789443933787 255.5069823822577 77.67545597253967 256.16914364661005 78.469 256.437 C 83.005 258.075 88.829 255.54700000000003 93.442 254.643 C 99.23599999999999 253.508 102.481 252.476 108.31099999999999 251.552 C 112.783 250.843 111.157 243.986 106.692 244.693 Z" stroke-linecap="round" />
</g>
<g transform="matrix(1.05 0 0 1.05 395.09 406.85)"  >
<path style="stroke: none; stroke-width: 1; stroke-dasharray: none; stroke-linecap: butt; stroke-dashoffset: 0; stroke-linejoin: miter; stroke-miterlimit: 4; fill: rgb(255,255,255); fill-rule: nonzero; opacity: 1;" vector-effect="non-scaling-stroke"  transform=" translate(-106.01, -176.35)" d="M 121.772 188.911 C 110.17200000000001 177.887 104.819 171.38 93.902 159.731 C 91.995 157.696 88.066 160.231 89.78 162.673 C 98.923 175.707 105.754 182.173 117.48 192.895 C 120.234 195.414 124.525 191.527 121.772 188.911 Z" stroke-linecap="round" />
</g>
<g transform="matrix(1.05 0 0 1.05 431.7 395.54)"  >
<path style="stroke: none; stroke-width: 1; stroke-dasharray: none; stroke-linecap: butt; stroke-dashoffset: 0; stroke-linejoin: miter; stroke-miterlimit: 4; fill: rgb(255,255,255); fill-rule: nonzero; opacity: 1;" vector-effect="non-scaling-stroke"  transform=" translate(-140.84, -165.59)" d="M 142.666 175.52 C 144.23 176.976 147.745 176.364 147.53 173.715 C 147.28 170.639 145.596 168.055 144.246 165.315 Q 142.067 160.89 139.83200000000002 156.493 C 138.032 152.972 132.83200000000002 155.823 134.454 159.37199999999999 Q 136.386 163.599 138.383 167.797 C 139.6 170.369 140.555 173.555 142.666 175.52 Z" stroke-linecap="round" />
</g>
<g transform="matrix(1.05 0 0 1.05 389.72 447.96)"  >
<path style="stroke: none; stroke-width: 1; stroke-dasharray: none; stroke-linecap: butt; stroke-dashoffset: 0; stroke-linejoin: miter; stroke-miterlimit: 4; fill: rgb(255,255,255); fill-rule: nonzero; opacity: 1;" vector-effect="non-scaling-stroke"  transform=" translate(-100.9, -215.46)" d="M 109.793 222.029 C 111.23399758941378 222.43478981111548 112.73694105013661 221.6235585746127 113.18849742759942 220.19624071881668 C 113.64005380506221 218.7689228630207 112.87718496371708 217.24086321231587 111.465 216.744 C 105.11014353895823 214.5119515070957 98.87129809625834 211.96241208930377 92.77199999999995 209.10499999999996 C 89.64800000000001 207.553 86.67200000000001 212.094 89.82400000000001 213.742 C 96.15370271661314 217.23365685382743 102.8509264950616 220.01295944544458 109.79299999999999 222.029 Z" stroke-linecap="round" />
</g>
<g transform="matrix(1.05 0 0 1.05 402.84 519.38)"  >
<path style="stroke: none; stroke-width: 1; stroke-dasharray: none; stroke-linecap: butt; stroke-dashoffset: 0; stroke-linejoin: miter; stroke-miterlimit: 4; fill: rgb(255,255,255); fill-rule: nonzero; opacity: 1;" vector-effect="non-scaling-stroke"  transform=" translate(-113.38, -283.41)" d="M 109.668 291.105 C 113.36800000000001 287.32500000000005 117.13300000000001 283.584 120.7 279.678 C 123.011 277.147 119.528 273.24399999999997 117.03 275.722 C 113.272 279.448 109.68900000000001 283.366 106.06400000000001 287.222 C 103.743 289.687 107.267 293.559 109.668 291.105 Z" stroke-linecap="round" />
</g>
<g transform="matrix(1.05 0 0 1.05 420.03 370.53)"  >
<path style="stroke: none; stroke-width: 1; stroke-dasharray: none; stroke-linecap: butt; stroke-dashoffset: 0; stroke-linejoin: miter; stroke-miterlimit: 4; fill: rgb(255,255,255); fill-rule: nonzero; opacity: 1;" vector-effect="non-scaling-stroke"  transform=" translate(-129.74, -141.79)" d="M 130.425 146.068 C 136.03400000000002 145.068 134.692 136.703 129.053 137.51000000000002 C 123.443 138.507 124.786 146.874 130.425 146.068 Z" stroke-linecap="round" />
</g>
<g transform="matrix(1.05 0 0 1.05 363.18 435.51)"  >
<path style="stroke: none; stroke-width: 1; stroke-dasharray: none; stroke-linecap: butt; stroke-dashoffset: 0; stroke-linejoin: miter; stroke-miterlimit: 4; fill: rgb(255,255,255); fill-rule: nonzero; opacity: 1;" vector-effect="non-scaling-stroke"  transform=" translate(-75.65, -203.61)" d="M 74.962 199.335 C 69.35300000000001 200.335 70.69500000000001 208.70000000000002 76.334 207.893 C 81.944 206.9 80.6 198.528 74.962 199.335 Z" stroke-linecap="round" />
</g>
<g transform="matrix(1.05 0 0 1.05 386.38 539.06)"  >
<path style="stroke: none; stroke-width: 1; stroke-dasharray: none; stroke-linecap: butt; stroke-dashoffset: 0; stroke-linejoin: miter; stroke-miterlimit: 4; fill: rgb(255,255,255); fill-rule: nonzero; opacity: 1;" vector-effect="non-scaling-stroke"  transform=" translate(-97.72, -302.14)" d="M 97.033 297.856 C 91.424 298.856 92.766 307.221 98.405 306.414 C 104.015 305.417 102.672 297.05 97.033 297.856 Z" stroke-linecap="round" />
</g>
<g transform="matrix(1.05 0 0 1.05 409.74 490.98)"  >
<path style="stroke: none; stroke-width: 1; stroke-dasharray: none; stroke-linecap: butt; stroke-dashoffset: 0; stroke-linejoin: miter; stroke-miterlimit: 4; fill: rgb(255,255,255); fill-rule: nonzero; opacity: 1;" vector-effect="non-scaling-stroke"  transform=" translate(-119.95, -256.39)" d="M 71.369 460.382 C 111.344 453.582 158.928 444.40500000000003 199.152 438.975 C 200.8096985716347 438.750584646715 202.11279746231193 437.4456491030955 202.33487779603342 435.78763609634194 C 202.55695812975492 434.1296230895884 201.64320722051085 432.5277545657259 200.10299999999998 431.875 L 169.23399999999998 418.761 C 165.8464314794136 417.32043713153706 162.1147466983386 416.88948414314007 158.48799999999994 417.52000000000004 C 147.26799999999997 419.47200000000004 128.55499999999998 424.17900000000003 117.33899999999997 426.12000000000006 C 113.93899999999996 409.6260000000001 100.24399999999997 398.63700000000006 83.33899999999997 401.32000000000005 C 67.3 312.724 54.807 223.486 45.1 133.981 C 61.772000000000006 129.781 71.013 116.04499999999999 69.011 99.097 Q 134.857 87.919 201.363 81.39699999999999 C 201.46138421836486 85.46216621584249 202.5670990395442 89.43937226156991 204.581 92.97200000000001 C 205.25862936053036 94.19245433643174 206.56546918465824 94.92763679865847 207.96035881788816 94.87310929481401 C 209.35524845111811 94.81858179096957 210.60071020372365 93.98362753983419 211.18099999999998 92.714 L 227.34099999999998 57.083999999999996 C 227.8357560832165 55.99294561476315 227.7135210225068 54.721176630302985 227.02001043271466 53.74433154776917 C 226.32649984292252 52.767486465235365 225.16617706864696 52.23270724032195 223.97299999999998 52.339999999999996 Q 148.486 59.239999999999995 73.57299999999998 71.15899999999999 C 54.026 74.289 34.294 77.207 14.959 81.5 C 13.361321317827644 81.73036415358482 12.194101028022232 83.12783772553138 12.251999999999999 84.741 C 24.208 209.925 43.209 334.649 67.867 457.994 C 67.98930542375925 458.78810044197917 68.43558015155462 459.4958705947814 69.09939987529177 459.9485266485462 C 69.76321959902891 460.40118270231096 70.58508366942141 460.55815139875847 71.369 460.382 Z" stroke-linecap="round" />
</g>
<g transform="matrix(1.05 0 0 1.05 438.84 459.64)"  >
<path style="stroke: none; stroke-width: 1; stroke-dasharray: none; stroke-linecap: butt; stroke-dashoffset: 0; stroke-linejoin: miter; stroke-miterlimit: 4; fill: rgb(255,255,255); fill-rule: nonzero; opacity: 1;" vector-effect="non-scaling-stroke"  transform=" translate(-147.63, -226.58)" d="M 133.665 265.078 C 134.54187817684732 266.4568256524325 136.1193095482866 267.2257590145349 137.7456291787059 267.0671400479836 C 139.37194880912523 266.9085210814323 140.77107350983908 265.84927686086405 141.36499999999998 264.327 L 169.51299999999998 191.966 C 170.10265823806745 190.43589729111312 169.77936039207913 188.70408520079883 168.67737149382927 187.48978227088475 C 167.5753825955794 186.27547934097066 165.88297398210543 185.7861454075281 164.30299999999997 186.22500000000002 C 130.924 194.527 114.372 235.926 133.665 265.078 Z" stroke-linecap="round" />
</g>
<g transform="matrix(1.05 0 0 1.05 598.52 484.25)"  >
<path style="stroke: none; stroke-width: 1; stroke-dasharray: none; stroke-linecap: butt; stroke-dashoffset: 0; stroke-linejoin: miter; stroke-miterlimit: 4; fill: rgb(255,255,255); fill-rule: nonzero; opacity: 1;" vector-effect="non-scaling-stroke"  transform=" translate(-299.57, -249.99)" d="M 260.075 19.566 C 258.5328783758992 18.941271567629155 256.7677973306582 19.578925418608993 255.981 21.044999999999998 Q 249.142 35.837999999999994 242.458 50.705 C 210.334 121.184 175.642 207.58100000000002 148.087 280.396 Q 129.15599999999998 331.096 111.57399999999998 382.25100000000003 C 111.26978158466305 383.0215388696687 111.29922873994651 383.88381218777994 111.65530581333726 384.631801567187 C 112.01138288672801 385.3797909465941 112.66210551700391 385.946308791439 113.45199999999998 386.196 C 152.32 400.817 200.48399999999998 419.644 239.21299999999997 435.802 C 272.27799999999996 449.702 305.02699999999993 464.355 337.251 480.151 C 339.45099999999996 481.036 342.197 480.92400000000004 343.251 478.257 Q 407.62199999999996 295.28700000000003 487.45099999999996 118.238 C 487.84040327259777 117.40728281961155 487.873067361131 116.45343642196865 487.5414048325255 115.59802663150481 C 487.20974230391994 114.74261684104096 486.54261943854846 114.06009433190692 485.695 113.709 C 412.14 78.637 337.057 46.336 260.075 19.566 Z M 442.794 155.366 C 413.309 221.438 346.213 391.4 339.705 409.248 C 323.133 402.60699999999997 303.405 411.921 296.031 428.106 C 255.554 409.968 213.716 395.069 172.18 379.574 C 177.72400000000002 363.123 171.239 346.224 154.79000000000002 339.831 C 186.54600000000002 252.62400000000002 221.78300000000002 166.68200000000002 259.64500000000004 81.95400000000001 C 276.67400000000004 86.87200000000001 292.035 79.44800000000001 299.057 63.319 Q 363.49 87.577 426.08500000000004 116.327 C 417.565 132.033 427.316 149.69 442.794 155.37 Z" stroke-linecap="round" />
</g>
</svg>